<svg id="Layer_1" data-name="Layer 1" xmlns="http://www.w3.org/2000/svg" xmlns:xlink="http://www.w3.org/1999/xlink" viewBox="0 0 488.93 389.15"><defs><linearGradient id="linear-gradient" x1="417.4" y1="257.85" x2="407.97" y2="277.52" gradientUnits="userSpaceOnUse"><stop offset="0" stop-color="#ecc4d7"/><stop offset="0.42" stop-color="#efd4d1"/><stop offset="1" stop-color="#f2eac9"/></linearGradient><linearGradient id="linear-gradient-2" x1="438.16" y1="298.2" x2="350.87" y2="267.23" gradientUnits="userSpaceOnUse"><stop offset="0" stop-opacity="0"/><stop offset="0.88" stop-opacity="0.8"/><stop offset="0.97"/></linearGradient><linearGradient id="linear-gradient-3" x1="424.55" y1="221.63" x2="362.31" y2="351.39" xlink:href="#linear-gradient-2"/><linearGradient id="linear-gradient-4" x1="465.15" y1="142.42" x2="488.36" y2="142.42" xlink:href="#linear-gradient"/><linearGradient id="linear-gradient-5" x1="366.37" y1="132.34" x2="386.97" y2="132.34" xlink:href="#linear-gradient"/><linearGradient id="linear-gradient-6" x1="434.13" y1="195.33" x2="355.87" y2="194.77" gradientUnits="userSpaceOnUse"><stop offset="0" stop-color="#fff" stop-opacity="0"/><stop offset="0.84" stop-color="#fff" stop-opacity="0.84"/><stop offset="0.97" stop-color="#fff"/></linearGradient><linearGradient id="linear-gradient-7" x1="432.6" y1="158.82" x2="411.01" y2="177.78" xlink:href="#linear-gradient"/><linearGradient id="linear-gradient-8" x1="229.22" y1="436.92" x2="233.73" y2="253.34" xlink:href="#linear-gradient-6"/><linearGradient id="linear-gradient-9" x1="370.85" y1="432.84" x2="375.06" y2="261.26" xlink:href="#linear-gradient-6"/><linearGradient id="linear-gradient-10" x1="230.81" y1="315.05" x2="232.18" y2="203.44" xlink:href="#linear-gradient-6"/><linearGradient id="linear-gradient-11" x1="380.45" y1="252.38" x2="205.93" y2="334.97" xlink:href="#linear-gradient-6"/><linearGradient id="linear-gradient-12" x1="218.43" y1="61.48" x2="218.43" y2="96.96" xlink:href="#linear-gradient-2"/><linearGradient id="linear-gradient-13" x1="240.99" y1="61.48" x2="240.99" y2="96.96" xlink:href="#linear-gradient-2"/><linearGradient id="linear-gradient-14" x1="263.55" y1="61.48" x2="263.55" y2="96.96" xlink:href="#linear-gradient-2"/><linearGradient id="linear-gradient-15" x1="217.73" y1="122.8" x2="218.11" y2="79.44" xlink:href="#linear-gradient-6"/><linearGradient id="linear-gradient-16" x1="217.8" y1="118.45" x2="217.98" y2="97.25" xlink:href="#linear-gradient-6"/><linearGradient id="linear-gradient-17" x1="262.92" y1="118.45" x2="263.11" y2="97.25" xlink:href="#linear-gradient-6"/><linearGradient id="linear-gradient-18" x1="240.36" y1="118.45" x2="240.54" y2="97.25" xlink:href="#linear-gradient-6"/><linearGradient id="linear-gradient-19" x1="240.29" y1="123" x2="240.67" y2="79.64" xlink:href="#linear-gradient-6"/><linearGradient id="linear-gradient-20" x1="262.85" y1="123.19" x2="263.23" y2="79.83" xlink:href="#linear-gradient-6"/><linearGradient id="linear-gradient-21" x1="239" y1="253.7" x2="243.51" y2="114.05" xlink:href="#linear-gradient-6"/><linearGradient id="linear-gradient-22" x1="319.03" y1="186.59" x2="220.67" y2="233.14" xlink:href="#linear-gradient-6"/><linearGradient id="linear-gradient-23" x1="227.87" y1="234.22" x2="230.12" y2="273.26" xlink:href="#linear-gradient-2"/><linearGradient id="linear-gradient-24" x1="228.79" y1="273.74" x2="231.04" y2="309.03" xlink:href="#linear-gradient-2"/><linearGradient id="linear-gradient-25" x1="228.32" y1="332.85" x2="229.45" y2="377.9" xlink:href="#linear-gradient-2"/><linearGradient id="linear-gradient-26" x1="229.87" y1="375.26" x2="231.75" y2="417.69" xlink:href="#linear-gradient-2"/><linearGradient id="linear-gradient-27" x1="240.78" y1="166.9" x2="240.78" y2="204.07" xlink:href="#linear-gradient-2"/><linearGradient id="linear-gradient-28" x1="237.92" y1="201.64" x2="239.61" y2="223.32" xlink:href="#linear-gradient-2"/><linearGradient id="linear-gradient-29" x1="434.47" y1="174.13" x2="353.01" y2="222.93" xlink:href="#linear-gradient-2"/><linearGradient id="linear-gradient-30" x1="450.93" y1="84.54" x2="420.12" y2="79.9" xlink:href="#linear-gradient-6"/><linearGradient id="linear-gradient-31" x1="452.59" y1="140.03" x2="433.83" y2="137.2" xlink:href="#linear-gradient-6"/></defs><title>56. Happy Birthday</title><path d="M29.41,350.47c2.54-5.65,6.69-10.43,9.51-16,8.3-16.29,3.85-35.85-.27-53.67s-7.34-38,2.78-53.21c2.59-3.9,6-7.31,7.85-11.6,6.06-13.89-5.88-29.13-5.66-44.28.13-8.36,4-16.28,9.2-22.87a64.61,64.61,0,0,1,43.75-24.2c17.53-1.81,36.08,3.55,52.45-3,16-6.4,25.65-22.45,39-33.33,20.34-16.58,48.25-20.3,74.48-19.77,23.34.48,48.6,4.78,64.55,21.84,14.68,15.7,18.19,38.68,29.09,57.21,20.51,34.87,63.23,48.93,93.66,75.58,10.2,8.93,19.18,19.56,24.53,32,9.9,23,6.24,50.26-4.9,72.73-4.71,9.5-10.85,19-10.48,29.61.4,11.29,8.26,21.9,6.24,33-1.56,8.56-8.89,15.15-17,18.28s-17,3.41-25.7,3.65l-284.89,7.82c-29.18.8-57.87.22-84.58-12.76C32,397.35,18.56,374.59,29.41,350.47Z" transform="translate(0.57 -68.54)" fill="#f95e5e" opacity="0.19" style="isolation:isolate"/><polygon points="417.15 261.47 418.38 269.37 407.56 270.4 408.34 263.17 417.15 261.47" fill="url(#linear-gradient)"/><path d="M377.8,244.68a367.7,367.7,0,0,0-19.25,45.42c-1.79,5.17-1.86,28,2.58,31.2,2.29-1.2,6.28.63,7.28-1.75,5.26-12.54,11.2-44.4,21.69-53.87a4.3,4.3,0,0,1,7.17,3.16c.1,9.74-.57,19.44.81,29.16.85,6,1.79,12.07,3.13,18,1,4.25,2.23,8.64,5.21,11.82s8.17,4.69,11.81,2.29c.8-16.6-4.4-12.55-2.85-49.74.46-11.2,6.31-22.55,4.64-33.64a8.6,8.6,0,0,0-1.29-3.91,8.37,8.37,0,0,0-3.17-2.31c-7.15-3.51-15.14-6.09-22.62-8.8C384.5,228.67,381.14,238.08,377.8,244.68Z" transform="translate(0.57 -68.54)" fill="#f95e5e"/><path d="M418.23,330.13c-3.64,2.4-8.83.89-11.81-2.29a13,13,0,0,1-1.28-1.6c-2.1-3-3.12-6.64-3.93-10.22-1.34-5.95-2.28-12-3.13-18-1.38-9.72-.71-19.42-.81-29.16a4.28,4.28,0,0,0-3.15-4.11,4.22,4.22,0,0,0-4,.95c-10.49,9.47-16.43,41.33-21.69,53.87-1,2.38-5,.55-7.28,1.75-4.44-3.18-4.37-26-2.58-31.2q4.4-12.66,9.7-25,4.46-10.37,9.55-20.43c3.34-6.6,6.7-16,15.14-13l4.52,1.61a170,170,0,0,1,18.1,7.19,8.37,8.37,0,0,1,3.17,2.31,8.6,8.6,0,0,1,1.29,3.91c1.67,11.09-4.18,22.44-4.64,33.64C413.83,317.58,419,313.53,418.23,330.13Z" transform="translate(0.57 -68.54)" fill="url(#linear-gradient-2)"/><path d="M408.43,281.22c0,10.69,1.4,45.7,1.4,45.7l-4.69-.68-2.06-1.95s-9.09-35.73-5.81-55.45a15.61,15.61,0,0,0-3.15-4.11c-1.83-1.65-4.37-2.88-7.4-1.54-6.35,2.82-15.18,10.42-15.18,10.42l-3.29-8.5q4.46-10.37,9.55-20.43c3.34-6.6,6.7-16,15.14-13l4.52,1.61,12.37,12.32S408.43,270.53,408.43,281.22Z" transform="translate(0.57 -68.54)" fill="url(#linear-gradient-3)"/><path d="M470.21,143.82c1.67-2.72,3.44-5.44,4.31-8.51A49.09,49.09,0,0,0,475.6,127c0-.35.23-.82.57-.74q.58,2.36,1,4.74c.94-.07,1.59-.94,2.17-1.68a19.24,19.24,0,0,1,2.72-2.84.52.52,0,0,1,.83.53c-.46,1.5-1.79,2.85-1.94,4.46,1.58-.57,2.39-2.45,3.68-3.43a.49.49,0,0,1,.72.61,14.18,14.18,0,0,1-2.45,3.54c.15.35.68.18,1,0l3.28-2.28c1,.17.07,1.33-.67,2s-1.6,1.24-2.27,2c-.39.42-.73,1.05-.44,1.55,1.29-.48,2.57-1,3.83-1.56a.52.52,0,0,1,.63.8A6.29,6.29,0,0,1,486.4,136a31.19,31.19,0,0,0-10,9.22,73.86,73.86,0,0,0-6.77,11.94c-.35.71-.93,1.56-1.7,1.38a1.73,1.73,0,0,1-.91-.78,11.64,11.64,0,0,1-1.47-2.9,3.24,3.24,0,0,1,.32-3.48C467.24,148.85,468.68,146.31,470.21,143.82Z" transform="translate(0.57 -68.54)" fill="url(#linear-gradient-4)"/><path d="M383.14,134.31c-1.3-2.91-2.7-5.84-3.17-9a48.86,48.86,0,0,1,0-8.38c0-.35-.12-.84-.47-.8-.58,1.5-1.12,3-1.59,4.57-.93-.19-1.46-1.14-1.94-1.95a18.4,18.4,0,0,0-2.33-3.16.51.51,0,0,0-.89.41c.26,1.55,1.41,3.06,1.35,4.68-1.5-.77-2.06-2.74-3.2-3.88a.49.49,0,0,0-.8.51,13.72,13.72,0,0,0,2,3.82c-.19.33-.69.1-1-.15l-3-2.68c-1,0-.23,1.31.41,2.08s1.42,1.44,2,2.26c.33.47.58,1.14.23,1.6-1.22-.65-2.42-1.33-3.6-2a.52.52,0,0,0-.72.72,6.22,6.22,0,0,0,1.65,1.58,31.28,31.28,0,0,1,8.77,10.44,74.08,74.08,0,0,1,5.18,12.72c.25.75.72,1.66,1.51,1.58a1.73,1.73,0,0,0,1-.65,11.52,11.52,0,0,0,1.83-2.69,3.26,3.26,0,0,0,.14-3.49C385.44,139.69,384.34,137,383.14,134.31Z" transform="translate(0.57 -68.54)" fill="url(#linear-gradient-5)"/><path d="M390.42,234.18s10.16,6.74,13.38,8.82c6.3,4.05,8.89,3.14,16,.74,4.3-1.45,8.64-31.11,10.89-35.66,2-4,4.9-7.41,7.8-10.79l25.2-29.39c1.87-2.19,3.79-4.46,4.72-7.19s.62-6.08-1.49-8a2.28,2.28,0,0,0-1.78-.75,2.82,2.82,0,0,0-1.46.86q-13.89,12.51-27,25.91a63.1,63.1,0,0,1-7.14,6.64,29.63,29.63,0,0,1-7.57,4.08,14.54,14.54,0,0,1-7.79-3.63,27,27,0,0,1-3.07-3.34,112.75,112.75,0,0,1-18.46-33c-.66-1.85-1.45-3.92-3.24-4.74-2.32-1.07-4.93.53-7,2.06a2.24,2.24,0,0,0-.77.79,2.19,2.19,0,0,0-.14.92c0,4.09,1.39,8,2.87,11.83,2.68,6.94,5.65,13.78,7.64,21s3.61,7.55,2.25,14.86c-.77,4.09-2.88,15.19-4.38,19.06C389.13,217.24,385.33,226,390.42,234.18Z" transform="translate(0.57 -68.54)" fill="#f95e5e"/><path d="M468.4,160.71c-.93,2.73-2.85,5-4.72,7.19l-25.2,29.39c-2.9,3.38-5.83,6.8-7.8,10.79-2.25,4.55-6.59,34.21-10.89,35.66a38.45,38.45,0,0,1-7,2l-.18,0c-2.75.31-5.16-.38-8.8-2.72-1.45-.94-4.32-2.82-7-4.61l-6.36-4.21c-5.09-8.19-1.29-16.94-.49-19,1.5-3.87,3.61-15,4.38-19.06,1.36-7.31-.26-7.7-2.25-14.86s-5-14-7.64-21c-1.48-3.8-2.88-7.74-2.87-11.83a2.19,2.19,0,0,1,.14-.92,2.24,2.24,0,0,1,.77-.79,17.26,17.26,0,0,1,2.79-1.75,4.85,4.85,0,0,1,4.19-.31c1.79.82,2.58,2.89,3.24,4.74a112.75,112.75,0,0,0,18.46,33,27,27,0,0,0,3.07,3.34,14.54,14.54,0,0,0,7.79,3.63,29.4,29.4,0,0,0,4.82-2.26l.05,0a30,30,0,0,0,2.7-1.79,63.1,63.1,0,0,0,7.14-6.64c1.4-1.43,2.8-2.86,4.21-4.27q9.1-9.15,18.61-17.87,2.06-1.89,4.14-3.77a2.82,2.82,0,0,1,1.46-.86,2.28,2.28,0,0,1,1.78.75,1.08,1.08,0,0,1,.18.2C469,154.85,469.29,158.07,468.4,160.71Z" transform="translate(0.57 -68.54)" fill="url(#linear-gradient-6)"/><path d="M407.67,165.5a17.86,17.86,0,0,0-1.5,4.1,9.37,9.37,0,0,0,3.08,8.75,12,12,0,0,1,1.7,1.48,6,6,0,0,1,.81,5.06c-.38,1.83-1.11,3.82-.23,5.47a5.54,5.54,0,0,0,1.69,1.72,5.6,5.6,0,0,0,4,1.39c1.61-.28,2.73-1.72,3.68-3.06,4.47-6.26,9-12.72,10.87-20.19.88-3.56,1.06-7.52-.76-10.7a12.52,12.52,0,0,0-6.68-5.22c-2.6-.94-7.87-2.6-10.47-.89-1.58,1-2.21,3.31-3,4.93Z" transform="translate(0.57 -68.54)" fill="url(#linear-gradient-7)"/><path d="M411.29,151.42a1.85,1.85,0,0,0-.52,1,1.55,1.55,0,0,0,1.17,1.48,4.53,4.53,0,0,0,2,0c-.61,1,.52,2.18,1.61,2.58s2.44.6,3,1.63c.25.46.28,1,.49,1.47.63,1.47,2.54,1.75,3.94,2.53,2.35,1.32,3.34,4.31,3.08,7s-1.55,5.14-2.8,7.52c.66.57,1.61-.3,1.93-1.11s.77-1.85,1.64-1.8,1.19,1.3,1,2.19a6.2,6.2,0,0,1-3.33,4.3,1.57,1.57,0,0,0-.7.48c-.32.48.08,1.17.62,1.36a2.84,2.84,0,0,0,1.7-.12,1.41,1.41,0,0,0,1.56,2.28,2.85,2.85,0,0,0,1.22-1.34l4.95-8.56a19,19,0,0,0,2.52-5.69,6.55,6.55,0,0,0-1.37-5.85,1.87,1.87,0,0,1-.68-1,2,2,0,0,1,.24-1c1.71-4.3-3.69-11-7.85-12C422.21,147.74,414.5,147.59,411.29,151.42Z" transform="translate(0.57 -68.54)" fill="#25233a"/><path d="M451,125.84q-1.77,6-3.78,11.83-1.5,4.41-3.12,8.78c-2.51,6.71-5.25,13.35-8.2,19.87-3.77-4.77-5.66-10.9-9.84-15.32a11.24,11.24,0,0,0-2.37-2c-.63-.38-1.88-.57-2.21-1.19,2.6-2.73,6.15-5,9.15-7.24,2.7-2,5.43-4,8.24-5.92.45-.32.9-.62,1.35-.92,1.35-.89,2.73-1.76,4.08-2.66A43.19,43.19,0,0,0,451,125.84Z" transform="translate(0.57 -68.54)" fill="#f95e5e"/><path d="M79.82,246.24H382.27a38.67,38.67,0,0,1,38.67,38.67v65a4.71,4.71,0,0,1-4.71,4.71H45.87a4.71,4.71,0,0,1-4.71-4.71v-65A38.67,38.67,0,0,1,79.82,246.24Z" fill="#f95e5e"/><path d="M420.37,353.44v65a4.71,4.71,0,0,1-4.71,4.71H45.3a4.71,4.71,0,0,1-4.71-4.71v-65a38.67,38.67,0,0,1,38.67-38.67H381.7a38.64,38.64,0,0,1,38.67,38.67Z" transform="translate(0.57 -68.54)" fill="url(#linear-gradient-8)"/><path d="M420.37,353.44v65a4.71,4.71,0,0,1-4.71,4.71h-87l-4.06-108.41,0-.74,29.16.74,36.35.92A38.68,38.68,0,0,1,420.37,353.44Z" transform="translate(0.57 -68.54)" fill="url(#linear-gradient-9)"/><path d="M380.37,314.77H82V259.05a30.39,30.39,0,0,1,30.38-30.39H350a30.4,30.4,0,0,1,30.39,30.39Z" transform="translate(0.57 -68.54)" fill="#f95e5e"/><path d="M380.37,259.05v55.72L82,310.78V259.05a30.39,30.39,0,0,1,30.38-30.39H350A30.4,30.4,0,0,1,380.37,259.05Z" transform="translate(0.57 -68.54)" fill="url(#linear-gradient-10)"/><path d="M380.37,259.05v55.72H298.81V228.66H350A30.4,30.4,0,0,1,380.37,259.05Z" transform="translate(0.57 -68.54)" fill="url(#linear-gradient-11)"/><path d="M218.43,50h0a3.26,3.26,0,0,1,3.26,3.26v32.5a0,0,0,0,1,0,0h-6.52a0,0,0,0,1,0,0V53.22A3.26,3.26,0,0,1,218.43,50Z" fill="#f95e5e"/><path d="M241,50h0a3.26,3.26,0,0,1,3.26,3.26v32.5a0,0,0,0,1,0,0h-6.52a0,0,0,0,1,0,0V53.22A3.26,3.26,0,0,1,241,50Z" fill="#f95e5e"/><path d="M263.55,50h0a3.26,3.26,0,0,1,3.26,3.26v32.5a0,0,0,0,1,0,0h-6.52a0,0,0,0,1,0,0V53.22A3.26,3.26,0,0,1,263.55,50Z" fill="#f95e5e"/><path d="M218.43,50h0a3.26,3.26,0,0,1,3.26,3.26v32.5a0,0,0,0,1,0,0h-6.52a0,0,0,0,1,0,0V53.22A3.26,3.26,0,0,1,218.43,50Z" fill="url(#linear-gradient-12)"/><path d="M241,50h0a3.26,3.26,0,0,1,3.26,3.26v32.5a0,0,0,0,1,0,0h-6.52a0,0,0,0,1,0,0V53.22A3.26,3.26,0,0,1,241,50Z" fill="url(#linear-gradient-13)"/><path d="M263.55,50h0a3.26,3.26,0,0,1,3.26,3.26v32.5a0,0,0,0,1,0,0h-6.52a0,0,0,0,1,0,0V53.22A3.26,3.26,0,0,1,263.55,50Z" fill="url(#linear-gradient-14)"/><path d="M214.2,112.29c-1.56-2.17-1.44-5.19-.79-7.78a31.28,31.28,0,0,1,3.25-7.32l0,1.17a16.27,16.27,0,0,0,.59-9.65q1.33,3.56,2.46,7.18c.69,2.21.92,5,1.78,7.11s1.57,4.49,1.11,6.76a6.83,6.83,0,0,1-2.32,3.87A4.52,4.52,0,0,1,214.2,112.29Z" transform="translate(0.57 -68.54)" fill="#f95e5e"/><path d="M236.76,112.29c-1.56-2.17-1.44-5.19-.79-7.78a31.28,31.28,0,0,1,3.25-7.32l0,1.17a16.19,16.19,0,0,0,.59-9.65q1.33,3.56,2.46,7.18c.69,2.21.92,5,1.78,7.11s1.58,4.49,1.12,6.76a6.85,6.85,0,0,1-2.33,3.87A4.52,4.52,0,0,1,236.76,112.29Z" transform="translate(0.57 -68.54)" fill="#f95e5e"/><path d="M259.32,112.29c-1.56-2.17-1.44-5.19-.79-7.78a30.9,30.9,0,0,1,3.26-7.32l0,1.17a16.19,16.19,0,0,0,.58-9.65q1.33,3.56,2.46,7.18c.69,2.21.92,5,1.78,7.11s1.58,4.49,1.12,6.76a6.85,6.85,0,0,1-2.33,3.87A4.52,4.52,0,0,1,259.32,112.29Z" transform="translate(0.57 -68.54)" fill="#f95e5e"/><path d="M214.2,112.29c-1.56-2.17-1.44-5.19-.79-7.78a31.28,31.28,0,0,1,3.25-7.32l0,1.17a16.27,16.27,0,0,0,.59-9.65q1.33,3.56,2.46,7.18c.69,2.21.92,5,1.78,7.11s1.57,4.49,1.11,6.76a6.83,6.83,0,0,1-2.32,3.87A4.52,4.52,0,0,1,214.2,112.29Z" transform="translate(0.57 -68.54)" fill="url(#linear-gradient-15)"/><path d="M216.07,113.31a4.69,4.69,0,0,1-.39-3.8,14.91,14.91,0,0,1,1.6-3.58v.57a8,8,0,0,0,.28-4.72c.44,1.16.84,2.33,1.21,3.51s.45,2.42.86,3.48a5.85,5.85,0,0,1,.55,3.3,3.35,3.35,0,0,1-1.14,1.9A2.22,2.22,0,0,1,216.07,113.31Z" transform="translate(0.57 -68.54)" fill="url(#linear-gradient-16)"/><path d="M261.19,113.31a4.65,4.65,0,0,1-.38-3.8,15.28,15.28,0,0,1,1.59-3.58v.57a8,8,0,0,0,.29-4.72q.65,1.74,1.2,3.51c.34,1.08.45,2.42.87,3.48a5.93,5.93,0,0,1,.54,3.3,3.34,3.34,0,0,1-1.13,1.9A2.23,2.23,0,0,1,261.19,113.31Z" transform="translate(0.57 -68.54)" fill="url(#linear-gradient-17)"/><path d="M238.63,113.31a4.65,4.65,0,0,1-.38-3.8,14.5,14.5,0,0,1,1.59-3.58v.57a8,8,0,0,0,.28-4.72c.44,1.16.84,2.33,1.21,3.51s.45,2.42.87,3.48a5.93,5.93,0,0,1,.54,3.3,3.39,3.39,0,0,1-1.13,1.9A2.23,2.23,0,0,1,238.63,113.31Z" transform="translate(0.57 -68.54)" fill="url(#linear-gradient-18)"/><path d="M236.76,112.29c-1.56-2.17-1.44-5.19-.79-7.78a31.28,31.28,0,0,1,3.25-7.32l0,1.17a16.19,16.19,0,0,0,.59-9.65q1.33,3.56,2.46,7.18c.69,2.21.92,5,1.78,7.11s1.58,4.49,1.12,6.76a6.85,6.85,0,0,1-2.33,3.87A4.52,4.52,0,0,1,236.76,112.29Z" transform="translate(0.57 -68.54)" fill="url(#linear-gradient-19)"/><path d="M259.32,112.29c-1.56-2.17-1.44-5.19-.79-7.78a30.9,30.9,0,0,1,3.26-7.32l0,1.17a16.19,16.19,0,0,0,.58-9.65q1.33,3.56,2.46,7.18c.69,2.21.92,5,1.78,7.11s1.58,4.49,1.12,6.76a6.85,6.85,0,0,1-2.33,3.87A4.52,4.52,0,0,1,259.32,112.29Z" transform="translate(0.57 -68.54)" fill="url(#linear-gradient-20)"/><path d="M84.18,247.14c3.85.1,7.71,1.09,11.52.52s7.72-2.74,11.5-1.69c2.07.58,3.77,2.07,5.75,2.89,6.76,2.82,14.62-2.48,21.67-.51,2.08.59,4.14,1.8,6.26,1.38,1.87-.37,3.24-1.92,4.86-2.91,6.23-3.81,14.15,1.08,21.44.64,4.6-.27,9.08-2.72,13.6-1.83,1.83.37,3.53,1.26,5.38,1.5,5.9.74,12.17-5.21,17.2-2,1.17.74,2.12,1.94,3.48,2.22,1.58.33,3.08-.7,4.51-1.47a16.14,16.14,0,0,1,13.5-.76c1.48.59,2.94,1.43,4.54,1.41,2.55,0,4.55-2.15,6.92-3.11,8.06-3.23,17.33,7.6,24.94,3.43,1.4-.77,2.52-2,3.94-2.69,5.82-2.92,12.26,3.61,18.75,3.23,4.64-.26,8.74-4.07,13.35-3.51,3.7.46,6.76,3.67,10.48,3.61,4.3-.07,8-4.51,12.19-3.41,2.37.64,4.08,3,6.52,3.31,4.11.55,6.78-4.76,10.87-5.44,4.65-.77,8.21,4.64,12.9,5.1,3,.29,5.71-1.45,8.63-2.05s6.86,1,6.57,4c2.88-2.23,6-4.54,9.6-4.85,5.34-.47,10.52,4.45,10.28,9.81s-5.89,9.8-11.14,8.72c-2.8-.58-5.23-2.43-8.05-2.91-4.48-.76-9,2.09-13.47,1.43-3.64-.53-6.85-3.3-10.52-3-2.71.21-5,2.09-7.67,2.7-7.78,1.81-15.7-7.4-23-4.05-2.5,1.15-4.21,3.6-6.69,4.8-6.93,3.35-14.7-4.58-22.29-3.33-4.28.7-7.93,4.27-12.25,4-3.32-.23-6.12-2.72-9.42-3.19-6.53-.93-11.81,6.13-18.41,6.34-7,.23-12.42-7.2-19.39-7-4.66.12-9.11,3.7-13.59,2.42-1.8-.52-3.33-1.78-5.16-2.23-5.13-1.27-9.79,4.22-15.07,3.92-3.24-.18-6-2.54-9.22-3-5.33-.78-10.23,3.72-15.61,3.52-4.25-.15-8-3.21-12.24-3.27-4.69-.06-8.81,3.54-13.5,3.64-5.37.1-10.08-4.39-15.43-4.07-5.58.34-10.21,5.83-15.75,5.05-2.22-.31-4.22-1.64-6.46-1.87-2.81-.29-5.49,1.17-8.28,1.64s-5.69-.1-8.49-.66-6-1.22-8.35-3.06C67.58,253.83,77.3,247,84.18,247.14Z" transform="translate(0.57 -68.54)" fill="#f95e5e"/><path d="M115.15,288.6c7.38,1,14-4.34,21.33-5.89,10-2.13,20.07,3,30.26,2.75,9.47-.26,18.6-5.24,28-4,4.64.61,9,2.72,13.73,2.86,8.16.26,16.15-5.48,24-3.25,3.85,1.08,7.39,4.05,11.34,3.43,1.86-.29,3.49-1.35,5.23-2,7.72-3,16.07,1.46,23.77,4.53,3,1.2,6.18,2.2,9.4,1.95,3.49-.27,6.68-2,9.94-3.26a42,42,0,0,1,24.8-1.73,8.38,8.38,0,0,0,4.45.31c1.66-.55,2.71-2.14,4-3.28,4.66-4,11.68-2,17.67-.64a64.32,64.32,0,0,0,27.79.11c3.14-.68,6.33-1.61,9.5-1.11s6.32,3,6.31,6.19c0,4-4.37,6.29-8.17,7.37a61.86,61.86,0,0,1-27.26,1.5,57.51,57.51,0,0,0-7.91-1.13,45.89,45.89,0,0,0-8.57.94c-3.48.56-7,1-10.49,1.36l-27.51,3.15c-6.78.77-13.71,1.54-20.35,0-4.54-1-8.88-3.17-13.53-3.41a34.24,34.24,0,0,0-9.2,1.2l-17.92,4a17.07,17.07,0,0,1-6.65.61c-3.2-.56-5.88-2.88-9.08-3.41-5.08-.85-9.93,3-15.07,2.75-5.89-.23-10.9-5.65-16.75-5-5,.59-9.15,5.53-14,4.48-2.44-.54-4.47-2.54-7-2.66-2.7-.12-5,2-7.59,2.66-5.34,1.38-11-3.35-16.21-1.5-2.25.8-4,2.75-6.31,3.35-5.31,1.38-9.92-4.77-15.41-4.71s-10.06,6.27-15.3,4.71c-1.65-.49-3.09-1.73-4.81-1.77-2.85-.06-5.1,3.22-7.91,2.78-2.6-.4-3.61-3.41-6-4.27-3.42-1.26-6.76,1.6-10.22.6-5.37-1.54-6.15-6.07-1.72-8.64,4.8-2.79,11.67-2,16.94-3,3.68-.69,7.18-2.29,11-2.08C107.76,285.73,111.22,288,115.15,288.6Z" transform="translate(0.57 -68.54)" fill="#f95e5e"/><path d="M42.16,342.56c3.84.49,7.66,1.94,11.47,1.26,3.32-.6,6.13-2.75,9.3-3.89,11.22-4,23.58,5.27,35.16,2.52,5.69-1.35,11-5.55,16.74-4.21,2,.47,3.89,1.64,6,1.69,3.49.09,6.36-2.95,9.82-3.38a17.94,17.94,0,0,1,5.66.69,53.85,53.85,0,0,0,10.7.62c10.31-.08,21.28-3.9,30.92-.25,29.36,11.09,50.54,3.75,57.93.71,9.67-4,20.9.06,31.36.09a75.92,75.92,0,0,1,12.43.71c3.27.54,6.51,1.51,9.83,1.41,6.85-.21,13-5,19.89-4.78,6,.15,11.65,4.14,17.64,3.45,5.55-.63,10.06-5.17,15.61-5.84,8.41-1,16.06,7,24.42,5.68,3.48-.56,6.58-2.73,10.08-3.06,6.28-.6,11.72,4.71,18,5.13,3.17.21,6.27-.84,9.35-1.61A53.89,53.89,0,0,1,420.9,338a9.26,9.26,0,0,1,4.5,1.14c3.16,2,2.93,7.08.53,10s-6.19,4.19-9.77,5.36c-7.85,2.55-16.12,5.14-24.24,3.59-5.74-1.1-11.15-4.25-17-4-7.61.34-15,6.42-22.14,3.82-2.23-.81-4.47-2.45-6.74-1.74-1.61.5-2.64,2.07-4.12,2.89-2.63,1.47-5.88.29-8.76-.6a41.81,41.81,0,0,0-26.88.79c-3.62,1.36-7.19,3.26-11.06,3.23-6.28,0-11.66-5.15-17.94-5.29-7.64-.18-14.26,7-21.84,6-2.61-.35-5-1.66-7.6-2.13a23.94,23.94,0,0,0-7.64.27l-27.41,4c-4.49.65-9.15,1.29-13.51,0-5.1-1.52-9.26-5.54-14.47-6.6-10.31-2.1-19.83,8-30.3,7-4-.37-7.63-2.31-11.57-2.92-8.37-1.3-17.06,3.48-25.2,1.13-4-1.17-7.7-4.06-11.92-4-6.76.16-11.34,7.81-18,8.61S74.24,363,68.06,365.77c-2,.9-3.64,2.72-5.82,3.09-5,.86-8.9-6.21-13.86-5.13-1.7.37-3,1.66-4.59,2.42-4.45,2.18-10.21-.5-12.49-4.9C26.94,352.82,31.88,341.23,42.16,342.56Z" transform="translate(0.57 -68.54)" fill="#f95e5e"/><path d="M58.3,389.37c10.91,0,22.1-6.76,32.18-2.58,2.68,1.11,5.15,3,8,3.11,3.66.18,6.77-2.4,10.07-4,12.43-6,27.38,2.25,40.87-.65,4.34-.93,8.42-3,12.84-3.41,9.87-.9,19.22,6.63,29,5.13,4.86-.74,9.18-3.65,14-4.48,9.18-1.57,18.16,4.52,27.46,3.91,3.54-.23,6.94-1.42,10.36-2.4a85.35,85.35,0,0,1,35.33-2.41c4,.58,8.13,1.44,12.13.73,5.4-.95,10.11-4.69,15.58-5.06,8.78-.6,16.89,7.59,25.43,5.46,2.87-.71,5.45-2.57,8.4-2.76,4.84-.33,9,3.85,13.84,4,6.27.25,11.26-6.11,17.54-6.17,4.95-.05,9.23,3.86,14.18,4.06,4.09.16,7.79-2.21,11.7-3.41s9.2-.54,10.59,3.3c3.62-4.61,10.82-3.25,16.4-1.44,3.52,1.15,7.55,2.8,8.49,6.38,1.2,4.58-3.54,8.49-8,10.18-19.74,7.51-42.05-2.09-62.87,1.47-6.94,1.19-13.86,3.85-20.82,2.8-4.12-.62-8-2.52-12.15-2.84-6.81-.53-13.38,3.24-20.2,2.86-3.82-.22-7.46-1.73-11.27-2.11-4.46-.44-8.91.7-13.3,1.59-14.28,2.92-28.93,3.39-43.49,3.84l-15.36.48c-18.22.57-36.6,1.12-54.53-2.17-4.37-.8-8.9-1.82-13.19-.66-3.23.89-6,2.94-9,4.47a30,30,0,0,1-23.45,1.53c-5.41-1.93-10.66-5.5-16.36-4.75-4.94.65-9,4.47-14,5.09-6.68.84-13.42-4.34-19.82-2.26-2.82.91-5.19,3.17-8.14,3.41-4.59.39-8.44-4.2-13-4-2.39.1-4.51,1.49-6.76,2.32-7.17,2.68-21.54-3-18.27-12.43C33,383.55,49.62,389.35,58.3,389.37Z" transform="translate(0.57 -68.54)" fill="#f95e5e"/><path d="M201,85.73h80a36.8,36.8,0,0,1,36.8,36.8v37.6a0,0,0,0,1,0,0H164.2a0,0,0,0,1,0,0v-37.6A36.8,36.8,0,0,1,201,85.73Z" fill="#f95e5e"/><path d="M317.22,191.07v37.59H163.63V191.07a36.8,36.8,0,0,1,36.8-36.81h80a36.51,36.51,0,0,1,17.32,4.33h0A36.8,36.8,0,0,1,317.22,191.07Z" transform="translate(0.57 -68.54)" fill="url(#linear-gradient-21)"/><path d="M317.22,191.07v37.59H276.28l-1.5-62.34c18.4-1.61,23-7.73,23-7.73h0A36.8,36.8,0,0,1,317.22,191.07Z" transform="translate(0.57 -68.54)" fill="url(#linear-gradient-22)"/><path d="M-.57,431A128.12,128.12,0,0,0,70.26,443.8c-2.94,1.83-2.17,6.72.58,8.83s6.48,2.25,10,2.29l220.51,2.71c12.2.15,24.63.27,36.32-3.25,7.08-2.13,13.71-5.54,20.71-7.91,7.94-2.68,16.27-4,24.54-5.28l57.57-9a15.15,15.15,0,0,0-16.35-9.45l4.93-7.6-369.6,9c-9.21.22-16.26-4.58-24.91-4.77C23.32,419.17,9.08,426-.57,431Z" transform="translate(0.57 -68.54)" fill="#f95e5e" opacity="0.36" style="isolation:isolate"/><path d="M169.21,178.77c3.19,1.29,6.17,3.52,9.62,3.46,4.81-.09,8.71-4.67,13.52-4.55,2.84.07,5.5,1.8,8.32,1.51,3.53-.37,6-3.73,9.43-4.68,6-1.67,12,4.53,18.05,3.05,3.32-.82,6.41-3.9,9.62-2.73,1.39.51,2.37,1.73,3.49,2.69a11.21,11.21,0,0,0,9.06,2.49c4-.68,7.66-3.54,11.68-3s7.41,4.19,11.16,3c2.22-.7,3.66-3,5.88-3.67,4.09-1.31,7.86,3.16,12.16,3.36,3.93.19,7.66-3.24,11.42-2.1,2.1.63,4,2.66,6.1,2,1.5-.48,2.47-2.27,4-2.27,1.18,0,2.1,1.05,3.26,1.3,2,.41,3.75-1.53,5.75-1.36,2.44.22,3.41,3.5,2.47,5.73s-3,3.78-4.55,5.66a6.78,6.78,0,0,1-1.56,1.6c-2.21,1.35-4.82-.75-7.27-1.61-5-1.77-10.44,2-15.75,1.47-5-.54-9.59-4.89-14.36-3.39-2.11.66-3.69,2.35-5.57,3.5s-4.62,1.6-6.09,0c-1-1.07-1.54-3-3-2.81-.78.12-1.25.88-1.9,1.32-1.62,1.13-3.78.06-5.7-.42-5.35-1.34-10.77,2.27-16.29,2s-10.93-4.24-15.78-1.87c-1.57.76-2.8,2.12-4.43,2.75-5,2-11-3.71-15.67-1-.86.49-1.55,1.24-2.39,1.77-2.9,1.84-6.74.77-9.92-.56s-6.65-2.89-9.94-1.85c-2.3.73-4,2.6-5.9,4.08s-4.47,2.65-6.68,1.68c-2-.9-3.4-3.47-5.63-3.31-2,.14-3.33,2.59-5.38,2.73-1.74.12-3.12-1.59-3.44-3.29s.07-3.43.07-5.16a11.39,11.39,0,0,1,.26-4c.5-1.32,3.74-3.08,5.05-3.69A9,9,0,0,1,169.21,178.77Z" transform="translate(0.57 -68.54)" fill="#f95e5e"/><path d="M310,206.46c-3.34,1-6.48,2.84-10,3.22-6.05.67-12.07-3-18.05-1.88-3.44.67-6.57,2.9-10.07,2.74-3.26-.16-6.08-2.39-9.29-3-6-1.15-11.92,3.5-18,2.6-2.9-.43-5.66-2.13-8.57-1.74-2.26.31-4.2,1.85-6.46,2.19-2.51.38-5-.77-7.4-1.43A19.71,19.71,0,0,0,207.57,211a7.61,7.61,0,0,1-3.55,1.4,7.8,7.8,0,0,1-2.87-.86,17.51,17.51,0,0,0-8.88-1.17,30,30,0,0,1-3.88.46,25.61,25.61,0,0,1-4.65-.82,41,41,0,0,0-10.09-.36l-2.3.11-8.76.41c-2.35.11-5,.4-6.39,2.3-2.34,3.26,1.62,7.79,5.61,8.22s7.93-1.29,11.95-1.2c2.72.07,5.37,1,8.08,1.22,7,.63,13.79-3.14,20.84-3.09,6.19,0,12.26,3,18.38,2.1,3-.46,5.87-1.84,8.88-1.64,2.59.17,5,1.5,7.63,1.45,2.85-.06,5.41-1.78,8.22-2.25,4.26-.71,8.51,1.49,12.83,1.41,5.42-.1,10.41-3.78,15.82-3.37,4.94.38,9.27,4.13,14.22,4s9.53-4.28,14.37-3.16c1.86.42,3.48,1.59,5.33,2s4.28-.23,4.67-2.1a5.31,5.31,0,0,0,7.8-.64C325.93,208.11,314.84,204.94,310,206.46Z" transform="translate(0.57 -68.54)" fill="#f95e5e"/><path d="M84.18,247.14c3.85.1,7.71,1.09,11.52.52s7.72-2.74,11.5-1.69c2.07.58,3.77,2.07,5.75,2.89,6.76,2.82,14.62-2.48,21.67-.51,2.08.59,4.14,1.8,6.26,1.38,1.87-.37,3.24-1.92,4.86-2.91,6.23-3.81,14.15,1.08,21.44.64,4.6-.27,9.08-2.72,13.6-1.83,1.83.37,3.53,1.26,5.38,1.5,5.9.74,12.17-5.21,17.2-2,1.17.74,2.12,1.94,3.48,2.22,1.58.33,3.08-.7,4.51-1.47a16.14,16.14,0,0,1,13.5-.76c1.48.59,2.94,1.43,4.54,1.41,2.55,0,4.55-2.15,6.92-3.11,8.06-3.23,17.33,7.6,24.94,3.43,1.4-.77,2.52-2,3.94-2.69,5.82-2.92,12.26,3.61,18.75,3.23,4.64-.26,8.74-4.07,13.35-3.51,3.7.46,6.76,3.67,10.48,3.61,4.3-.07,8-4.51,12.19-3.41,2.37.64,4.08,3,6.52,3.31,4.11.55,6.78-4.76,10.87-5.44,4.65-.77,8.21,4.64,12.9,5.1,3,.29,5.71-1.45,8.63-2.05s6.86,1,6.57,4c2.88-2.23,6-4.54,9.6-4.85,5.34-.47,10.52,4.45,10.28,9.81s-5.89,9.8-11.14,8.72c-2.8-.58-5.23-2.43-8.05-2.91-4.48-.76-9,2.09-13.47,1.43-3.64-.53-6.85-3.3-10.52-3-2.71.21-5,2.09-7.67,2.7-7.78,1.81-15.7-7.4-23-4.05-2.5,1.15-4.21,3.6-6.69,4.8-6.93,3.35-14.7-4.58-22.29-3.33-4.28.7-7.93,4.27-12.25,4-3.32-.23-6.12-2.72-9.42-3.19-6.53-.93-11.81,6.13-18.41,6.34-7,.23-12.42-7.2-19.39-7-4.66.12-9.11,3.7-13.59,2.42-1.8-.52-3.33-1.78-5.16-2.23-5.13-1.27-9.79,4.22-15.07,3.92-3.24-.18-6-2.54-9.22-3-5.33-.78-10.23,3.72-15.61,3.52-4.25-.15-8-3.21-12.24-3.27-4.69-.06-8.81,3.54-13.5,3.64-5.37.1-10.08-4.39-15.43-4.07-5.58.34-10.21,5.83-15.75,5.05-2.22-.31-4.22-1.64-6.46-1.87-2.81-.29-5.49,1.17-8.28,1.64s-5.69-.1-8.49-.66-6-1.22-8.35-3.06C67.58,253.83,77.3,247,84.18,247.14Z" transform="translate(0.57 -68.54)" fill="url(#linear-gradient-23)"/><path d="M115.15,288.6c7.38,1,14-4.34,21.33-5.89,10-2.13,20.07,3,30.26,2.75,9.47-.26,18.6-5.24,28-4,4.64.61,9,2.72,13.73,2.86,8.16.26,16.15-5.48,24-3.25,3.85,1.08,7.39,4.05,11.34,3.43,1.86-.29,3.49-1.35,5.23-2,7.72-3,16.07,1.46,23.77,4.53,3,1.2,6.18,2.2,9.4,1.95,3.49-.27,6.68-2,9.94-3.26a42,42,0,0,1,24.8-1.73,8.38,8.38,0,0,0,4.45.31c1.66-.55,2.71-2.14,4-3.28,4.66-4,11.68-2,17.67-.64a64.32,64.32,0,0,0,27.79.11c3.14-.68,6.33-1.61,9.5-1.11s6.32,3,6.31,6.19c0,4-4.37,6.29-8.17,7.37a61.86,61.86,0,0,1-27.26,1.5,57.51,57.51,0,0,0-7.91-1.13,45.89,45.89,0,0,0-8.57.94c-3.48.56-7,1-10.49,1.36l-27.51,3.15c-6.78.77-13.71,1.54-20.35,0-4.54-1-8.88-3.17-13.53-3.41a34.24,34.24,0,0,0-9.2,1.2l-17.92,4a17.07,17.07,0,0,1-6.65.61c-3.2-.56-5.88-2.88-9.08-3.41-5.08-.85-9.93,3-15.07,2.75-5.89-.23-10.9-5.65-16.75-5-5,.59-9.15,5.53-14,4.48-2.44-.54-4.47-2.54-7-2.66-2.7-.12-5,2-7.59,2.66-5.34,1.38-11-3.35-16.21-1.5-2.25.8-4,2.75-6.31,3.35-5.31,1.38-9.92-4.77-15.41-4.71s-10.06,6.27-15.3,4.71c-1.65-.49-3.09-1.73-4.81-1.77-2.85-.06-5.1,3.22-7.91,2.78-2.6-.4-3.61-3.41-6-4.27-3.42-1.26-6.76,1.6-10.22.6-5.37-1.54-6.15-6.07-1.72-8.64,4.8-2.79,11.67-2,16.94-3,3.68-.69,7.18-2.29,11-2.08C107.76,285.73,111.22,288,115.15,288.6Z" transform="translate(0.57 -68.54)" fill="url(#linear-gradient-24)"/><path d="M42.16,342.56c3.84.49,7.66,1.94,11.47,1.26,3.32-.6,6.13-2.75,9.3-3.89,11.22-4,23.58,5.27,35.16,2.52,5.69-1.35,11-5.55,16.74-4.21,2,.47,3.89,1.64,6,1.69,3.49.09,6.36-2.95,9.82-3.38a17.94,17.94,0,0,1,5.66.69,53.85,53.85,0,0,0,10.7.62c10.31-.08,21.28-3.9,30.92-.25,29.36,11.09,50.54,3.75,57.93.71,9.67-4,20.9.06,31.36.09a75.92,75.92,0,0,1,12.43.71c3.27.54,6.51,1.51,9.83,1.41,6.85-.21,13-5,19.89-4.78,6,.15,11.65,4.14,17.64,3.45,5.55-.63,10.06-5.17,15.61-5.84,8.41-1,16.06,7,24.42,5.68,3.48-.56,6.58-2.73,10.08-3.06,6.28-.6,11.72,4.71,18,5.13,3.17.21,6.27-.84,9.35-1.61A53.89,53.89,0,0,1,420.9,338a9.26,9.26,0,0,1,4.5,1.14c3.16,2,2.93,7.08.53,10s-6.19,4.19-9.77,5.36c-7.85,2.55-16.12,5.14-24.24,3.59-5.74-1.1-11.15-4.25-17-4-7.61.34-15,6.42-22.14,3.82-2.23-.81-4.47-2.45-6.74-1.74-1.61.5-2.64,2.07-4.12,2.89-2.63,1.47-5.88.29-8.76-.6a41.81,41.81,0,0,0-26.88.79c-3.62,1.36-7.19,3.26-11.06,3.23-6.28,0-11.66-5.15-17.94-5.29-7.64-.18-14.26,7-21.84,6-2.61-.35-5-1.66-7.6-2.13a23.94,23.94,0,0,0-7.64.27l-27.41,4c-4.49.65-9.15,1.29-13.51,0-5.1-1.52-9.26-5.54-14.47-6.6-10.31-2.1-19.83,8-30.3,7-4-.37-7.63-2.31-11.57-2.92-8.37-1.3-17.06,3.48-25.2,1.13-4-1.17-7.7-4.06-11.92-4-6.76.16-11.34,7.81-18,8.61S74.24,363,68.06,365.77c-2,.9-3.64,2.72-5.82,3.09-5,.86-8.9-6.21-13.86-5.13-1.7.37-3,1.66-4.59,2.42-4.45,2.18-10.21-.5-12.49-4.9C26.94,352.82,31.88,341.23,42.16,342.56Z" transform="translate(0.57 -68.54)" fill="url(#linear-gradient-25)"/><path d="M58.3,389.37c10.91,0,22.1-6.76,32.18-2.58,2.68,1.11,5.15,3,8,3.11,3.66.18,6.77-2.4,10.07-4,12.43-6,27.38,2.25,40.87-.65,4.34-.93,8.42-3,12.84-3.41,9.87-.9,19.22,6.63,29,5.13,4.86-.74,9.18-3.65,14-4.48,9.18-1.57,18.16,4.52,27.46,3.91,3.54-.23,6.94-1.42,10.36-2.4a85.35,85.35,0,0,1,35.33-2.41c4,.58,8.13,1.44,12.13.73,5.4-.95,10.11-4.69,15.58-5.06,8.78-.6,16.89,7.59,25.43,5.46,2.87-.71,5.45-2.57,8.4-2.76,4.84-.33,9,3.85,13.84,4,6.27.25,11.26-6.11,17.54-6.17,4.95-.05,9.23,3.86,14.18,4.06,4.09.16,7.79-2.21,11.7-3.41s9.2-.54,10.59,3.3c3.62-4.61,10.82-3.25,16.4-1.44,3.52,1.15,7.55,2.8,8.49,6.38,1.2,4.58-3.54,8.49-8,10.18-19.74,7.51-42.05-2.09-62.87,1.47-6.94,1.19-13.86,3.85-20.82,2.8-4.12-.62-8-2.52-12.15-2.84-6.81-.53-13.38,3.24-20.2,2.86-3.82-.22-7.46-1.73-11.27-2.11-4.46-.44-8.91.7-13.3,1.59-14.28,2.92-28.93,3.39-43.49,3.84l-15.36.48c-18.22.57-36.6,1.12-54.53-2.17-4.37-.8-8.9-1.82-13.19-.66-3.23.89-6,2.94-9,4.47a30,30,0,0,1-23.45,1.53c-5.41-1.93-10.66-5.5-16.36-4.75-4.94.65-9,4.47-14,5.09-6.68.84-13.42-4.34-19.82-2.26-2.82.91-5.19,3.17-8.14,3.41-4.59.39-8.44-4.2-13-4-2.39.1-4.51,1.49-6.76,2.32-7.17,2.68-21.54-3-18.27-12.43C33,383.55,49.62,389.35,58.3,389.37Z" transform="translate(0.57 -68.54)" fill="url(#linear-gradient-26)"/><path d="M169.21,178.77c3.19,1.29,6.17,3.52,9.62,3.46,4.81-.09,8.71-4.67,13.52-4.55,2.84.07,5.5,1.8,8.32,1.51,3.53-.37,6-3.73,9.43-4.68,6-1.67,12,4.53,18.05,3.05,3.32-.82,6.41-3.9,9.62-2.73,1.39.51,2.37,1.73,3.49,2.69a11.21,11.21,0,0,0,9.06,2.49c4-.68,7.66-3.54,11.68-3s7.41,4.19,11.16,3c2.22-.7,3.66-3,5.88-3.67,4.09-1.31,7.86,3.16,12.16,3.36,3.93.19,7.66-3.24,11.42-2.1,2.1.63,4,2.66,6.1,2,1.5-.48,2.47-2.27,4-2.27,1.18,0,2.1,1.05,3.26,1.3,2,.41,3.75-1.53,5.75-1.36,2.44.22,3.41,3.5,2.47,5.73s-3,3.78-4.55,5.66a6.78,6.78,0,0,1-1.56,1.6c-2.21,1.35-4.82-.75-7.27-1.61-5-1.77-10.44,2-15.75,1.47-5-.54-9.59-4.89-14.36-3.39-2.11.66-3.69,2.35-5.57,3.5s-4.62,1.6-6.09,0c-1-1.07-1.54-3-3-2.81-.78.12-1.25.88-1.9,1.32-1.62,1.13-3.78.06-5.7-.42-5.35-1.34-10.77,2.27-16.29,2s-10.93-4.24-15.78-1.87c-1.57.76-2.8,2.12-4.43,2.75-5,2-11-3.71-15.67-1-.86.49-1.55,1.24-2.39,1.77-2.9,1.84-6.74.77-9.92-.56s-6.65-2.89-9.94-1.85c-2.3.73-4,2.6-5.9,4.08s-4.47,2.65-6.68,1.68c-2-.9-3.4-3.47-5.63-3.31-2,.14-3.33,2.59-5.38,2.73-1.74.12-3.12-1.59-3.44-3.29s.07-3.43.07-5.16a11.39,11.39,0,0,1,.26-4c.5-1.32,3.74-3.08,5.05-3.69A9,9,0,0,1,169.21,178.77Z" transform="translate(0.57 -68.54)" fill="url(#linear-gradient-27)"/><path d="M310,206.46c-3.34,1-6.48,2.84-10,3.22-6.05.67-12.07-3-18.05-1.88-3.44.67-6.57,2.9-10.07,2.74-3.26-.16-6.08-2.39-9.29-3-6-1.15-11.92,3.5-18,2.6-2.9-.43-5.66-2.13-8.57-1.74-2.26.31-4.2,1.85-6.46,2.19-2.51.38-5-.77-7.4-1.43A19.71,19.71,0,0,0,207.57,211a7.61,7.61,0,0,1-3.55,1.4,7.8,7.8,0,0,1-2.87-.86,17.51,17.51,0,0,0-8.88-1.17,30,30,0,0,1-3.88.46,25.61,25.61,0,0,1-4.65-.82,41,41,0,0,0-10.09-.36l-2.3.11-8.76.41c-2.35.11-5,.4-6.39,2.3-2.34,3.26,1.62,7.79,5.61,8.22s7.93-1.29,11.95-1.2c2.72.07,5.37,1,8.08,1.22,7,.63,13.79-3.14,20.84-3.09,6.19,0,12.26,3,18.38,2.1,3-.46,5.87-1.84,8.88-1.64,2.59.17,5,1.5,7.63,1.45,2.85-.06,5.41-1.78,8.22-2.25,4.26-.71,8.51,1.49,12.83,1.41,5.42-.1,10.41-3.78,15.82-3.37,4.94.38,9.27,4.13,14.22,4s9.53-4.28,14.37-3.16c1.86.42,3.48,1.59,5.33,2s4.28-.23,4.67-2.1a5.31,5.31,0,0,0,7.8-.64C325.93,208.11,314.84,204.94,310,206.46Z" transform="translate(0.57 -68.54)" fill="url(#linear-gradient-28)"/><path d="M467.18,154.26c-.21,3.53-42,46.33-42,46.33l-9.1,35.85-3.34,9.26,0,.09-.15-.07c-2.75.31-5.16-.38-8.8-2.72-1.45-.94-4.32-2.82-7-4.61l-6.36-4.21c-5.09-8.19-1.29-16.94-.49-19,1.5-3.87,3.61-15,4.38-19.06,1.36-7.31-.26-7.7-2.25-14.86s-5-14-7.64-21c-1.48-3.8-2.88-7.74-2.87-11.83a2.19,2.19,0,0,1,.14-.92,2.24,2.24,0,0,1,.77-.79,17.26,17.26,0,0,1,2.79-1.75,3.31,3.31,0,0,1,1.14.87s13.07,34,19.62,38.43,9.74,4.81,9.74,4.81l1.51,4.33,9.56-6.32.05,0,2.7-1.79,11.35-10.91,18.61-17.87,5.6-4.63a1.28,1.28,0,0,1,2,1A4.76,4.76,0,0,1,467.18,154.26Z" transform="translate(0.57 -68.54)" fill="url(#linear-gradient-29)"/><path d="M102.32,148.56a6.84,6.84,0,0,0-1,4.13,5.63,5.63,0,0,0,3.07,3.53,15.09,15.09,0,0,0,7.58,1.9,12.89,12.89,0,0,1,1.51-8.62c1-1.71,2.42-3.41,2.15-5.36a6.47,6.47,0,0,0-1.58-3C107.48,133,105.41,142.28,102.32,148.56Z" transform="translate(0.57 -68.54)" fill="#f95e5e" opacity="0.36" style="isolation:isolate"/><path d="M108.23,166.45a3.39,3.39,0,0,0-1.42.76c-1.23.94-2.56,2.18-2.46,3.74a4,4,0,0,0,1.79,2.73,18.7,18.7,0,0,0,4.72,2.33,1.26,1.26,0,0,0,.68.13,1.37,1.37,0,0,0,.55-.34C114.94,173.25,113.07,165.63,108.23,166.45Z" transform="translate(0.57 -68.54)" fill="#f95e5e" opacity="0.36" style="isolation:isolate"/><path d="M126,155.71a1.17,1.17,0,0,0-.51.71,1.14,1.14,0,0,0,.27.73l2.08,3.27a2.14,2.14,0,0,0,.66.74c.86.49,1.85-.39,2.45-1.18l3.73-4.87a3.71,3.71,0,0,0,.84-4.26,33.56,33.56,0,0,0-1.32-4.2C131.27,148.38,128.84,153.26,126,155.71Z" transform="translate(0.57 -68.54)" fill="#f95e5e" opacity="0.36" style="isolation:isolate"/><path d="M303.16,125.51l3.1,12.61a3.11,3.11,0,0,0,.77,1.62,3,3,0,0,0,2.1.48l6.18-.11-4.56-11.21a2.83,2.83,0,0,0-2.88-2.2l-5.91-.84" transform="translate(0.57 -68.54)" fill="#f95e5e" opacity="0.36" style="isolation:isolate"/><path d="M325.72,131.42a11.36,11.36,0,0,1-5.71,2.4l1.58,3a.82.82,0,0,0,.27.34.73.73,0,0,0,.46,0,4.31,4.31,0,0,0,3.33-1.61c.8-1.29.29-3-.25-4.4" transform="translate(0.57 -68.54)" fill="#f95e5e" opacity="0.36" style="isolation:isolate"/><path d="M324.36,150.68a.88.88,0,0,0,0,.62.92.92,0,0,0,.44.33,15.23,15.23,0,0,0,3.68,1.13,7.82,7.82,0,0,1,.33-3.43,10.22,10.22,0,0,0,.86-3,1.66,1.66,0,0,0-.22-.91,1.82,1.82,0,0,0-.88-.63C325.21,143.39,325.1,148.11,324.36,150.68Z" transform="translate(0.57 -68.54)" fill="#f95e5e" opacity="0.36" style="isolation:isolate"/><path d="M315.79,102.73a23.4,23.4,0,0,0-5.67.24q.27,1.89.66,3.75a54.09,54.09,0,0,0,9.25.81,10.82,10.82,0,0,0-2.26-3.54,3.7,3.7,0,0,0-3.89-.87" transform="translate(0.57 -68.54)" fill="#f95e5e" opacity="0.36" style="isolation:isolate"/><path d="M347.87,176.64c-1.33,4.3-6,6.94-7.21,11.28a18,18,0,0,0,3.91,2.49,13.43,13.43,0,0,0,2.5-13" transform="translate(0.57 -68.54)" fill="#f95e5e" opacity="0.36" style="isolation:isolate"/><path d="M120.06,201a18.53,18.53,0,0,1-.48,7.07,14.79,14.79,0,0,0,7.1.82,1.47,1.47,0,0,0,1.12-.51,1.63,1.63,0,0,0,.18-.85l.11-6.17c.06-2.87-.49-6.57-3.29-7.21a4,4,0,0,0-4,1.8,7.72,7.72,0,0,0-1.13,4.47" transform="translate(0.57 -68.54)" fill="#f95e5e" opacity="0.36" style="isolation:isolate"/><path d="M133.07,169.47a65.23,65.23,0,0,1-6.56.15,9.69,9.69,0,0,1,.17,2.79c1.06,0,2.13,0,3.19,0a2.86,2.86,0,0,0,1.24-.19c1.06-.52,1.1-2,1.79-3" transform="translate(0.57 -68.54)" fill="#f95e5e" opacity="0.36" style="isolation:isolate"/><path d="M123.85,138.68l-.87,4.75a.46.46,0,0,0,0,.31.46.46,0,0,0,.27.15l2.52.67a12.08,12.08,0,0,1,.27-4.48,5.7,5.7,0,0,0-2.38-1.61" transform="translate(0.57 -68.54)" fill="#f95e5e" opacity="0.36" style="isolation:isolate"/><path d="M116.35,160.44l2.22,1.74-.87,1.14a.51.51,0,0,1-.25.21.49.49,0,0,1-.35-.06,2.37,2.37,0,0,1-1.35-1.21,1.15,1.15,0,0,1,.64-1.52" transform="translate(0.57 -68.54)" fill="#f95e5e" opacity="0.36" style="isolation:isolate"/><path d="M77.31,158.36a8.71,8.71,0,0,0,3.6,3.31l-2.7,2.22a25,25,0,0,1-3.83-4.13,9.37,9.37,0,0,1,2.39-1" transform="translate(0.57 -68.54)" fill="#f95e5e" opacity="0.36" style="isolation:isolate"/><path d="M85.38,189a16.61,16.61,0,0,0,7.84,4.55c-.88,1.21-1.76,2.42-2.66,3.62a1.62,1.62,0,0,1-.67.63,1.77,1.77,0,0,1-.76,0l-4.25-.49c-1.19-.13-2.67-.52-2.87-1.7a2.84,2.84,0,0,1,.64-1.92l3.29-5.16" transform="translate(0.57 -68.54)" fill="#f95e5e" opacity="0.36" style="isolation:isolate"/><polygon points="428.73 73.89 437.93 94.59 441.3 86.4 434.01 69.97 428.73 73.89" fill="url(#linear-gradient-30)"/><path d="M447.25,137.67q-1.5,4.41-3.12,8.78l-5.23-11.78c.45-.32.9-.62,1.35-.92,1.35-.89,2.73-1.76,4.08-2.66Z" transform="translate(0.57 -68.54)" fill="url(#linear-gradient-31)"/></svg>