<svg id="Layer_1" data-name="Layer 1" xmlns="http://www.w3.org/2000/svg" xmlns:xlink="http://www.w3.org/1999/xlink" viewBox="0 0 384.76 319.39"><defs><linearGradient id="linear-gradient" x1="194.03" y1="186.05" x2="191.22" y2="287.41" gradientUnits="userSpaceOnUse"><stop offset="0.01"/><stop offset="0.13" stop-opacity="0.69"/><stop offset="0.72" stop-opacity="0.2"/><stop offset="1" stop-opacity="0"/></linearGradient><linearGradient id="linear-gradient-2" x1="148.04" y1="139.7" x2="183.26" y2="139.7" gradientUnits="userSpaceOnUse"><stop offset="0.01" stop-color="#fff"/><stop offset="0.13" stop-color="#fff" stop-opacity="0.69"/><stop offset="1" stop-color="#fff" stop-opacity="0"/></linearGradient><linearGradient id="linear-gradient-3" x1="178.98" y1="116.29" x2="153.36" y2="87.29" xlink:href="#linear-gradient"/><linearGradient id="linear-gradient-4" x1="211.89" y1="173.43" x2="249.91" y2="84.74" xlink:href="#linear-gradient"/><linearGradient id="linear-gradient-5" x1="185.17" y1="152.29" x2="213.67" y2="152.29" xlink:href="#linear-gradient-2"/><linearGradient id="linear-gradient-6" x1="231.32" y1="97.97" x2="233.29" y2="153.44" xlink:href="#linear-gradient-2"/><linearGradient id="linear-gradient-7" x1="188.79" y1="202" x2="196.98" y2="202" xlink:href="#linear-gradient-2"/><linearGradient id="linear-gradient-8" x1="171.69" y1="180.49" x2="141.84" y2="178.52" gradientUnits="userSpaceOnUse"><stop offset="0.01"/><stop offset="0.13" stop-opacity="0.69"/><stop offset="1" stop-opacity="0"/></linearGradient><linearGradient id="linear-gradient-9" x1="203.62" y1="229.11" x2="162.23" y2="182.65" xlink:href="#linear-gradient-8"/><linearGradient id="linear-gradient-10" x1="219.05" y1="304.65" x2="235.94" y2="144.72" xlink:href="#linear-gradient"/><linearGradient id="linear-gradient-11" x1="206.13" y1="224.72" x2="266.38" y2="158.83" xlink:href="#linear-gradient"/><linearGradient id="linear-gradient-12" x1="294.63" y1="126.17" x2="184.82" y2="99.98" xlink:href="#linear-gradient"/><linearGradient id="linear-gradient-13" x1="218.96" y1="151.91" x2="181.42" y2="111.36" xlink:href="#linear-gradient"/><linearGradient id="linear-gradient-14" x1="162.03" y1="57.21" x2="143.16" y2="120.84" xlink:href="#linear-gradient"/></defs><title>23</title><path d="M265.6,3.92c11.11,2.42,21.28,7.88,31.24,13.36,16.74,9.21,33.72,18.95,46.06,33.53,10.27,12.15,16.75,27,22.93,41.64,9.56,22.7,18.77,45.62,25.23,69.4,5.86,21.57,9.15,45.68-1.35,65.41-4.69,8.82-11.83,16.09-19.41,22.61-9,7.72-18.91,14.69-30.3,17.88-13.13,3.68-27.09,2.07-40.71,2.86-58.83,3.42-108.92,51.25-167.85,51.26-13.9,0-28.3-3-39.33-11.45-13.21-10.16-19.72-26.49-28.43-40.71C48.29,244.6,24.53,224.1,15.78,196c-5.35-17.2-4.5-35.7-2.22-53.57,1.86-14.54,4.7-29.16,11.1-42.36C41.76,64.73,82,45.43,121.15,42.34c8.39-.66,16.84-.69,25.19-1.87,8.58-1.22,16.51-4.74,24.62-7.69a43.41,43.41,0,0,0,5.08-2.1c6.12-3.16,11.7-7.08,17.89-10.3A230.67,230.67,0,0,1,216.86,9.81C232.31,3.85,249.15.34,265.6,3.92Z" transform="translate(-11.78 -2.48)" fill="#f95e5e" opacity="0.18" style="isolation:isolate"/><ellipse cx="195.38" cy="228.83" rx="131.4" ry="31.9" fill="#f95e5e" opacity="0.18" style="isolation:isolate"/><ellipse cx="193.13" cy="218.38" rx="131.4" ry="31.9" fill="#fff"/><ellipse cx="193.13" cy="218.38" rx="131.4" ry="31.9" fill="url(#linear-gradient)"/><ellipse cx="193.13" cy="214.09" rx="131.4" ry="31.9" fill="#fff"/><path d="M146.44,223.88a9.81,9.81,0,0,1,3.86.45c1.65.72,2.62,2.4,3.75,3.81,5.64,7,15.94,7.59,24.94,7.47q32.13-.42,64.19-2.75c15.71-1.13,31.85-2.74,45.84-10a15.61,15.61,0,0,0,5.57-4.22,6.33,6.33,0,0,0,.83-6.62,8.34,8.34,0,0,0-4-3.22c-5.47-2.53-11.54-3.45-17.54-4.1a377.37,377.37,0,0,0-38.49-1.8q-31.46-.22-62.9,1.27c-11.24.53-28-2.73-37,5.75-3.24,3.08-6.91,6.54-2.61,9.93C136.46,222.69,142,223.86,146.44,223.88Z" transform="translate(-11.78 -2.48)" fill="#f95e5e" opacity="0.18" style="isolation:isolate"/><path d="M157.79,124.41c-5.23,3.77-8.85,9.46-11.11,15.51s-3.24,12.48-4.05,18.88c-1.77,14-2.73,28.07-3.29,42.16-.13,3.36-.21,6.89,1.29,9.91s5.14,5.25,8.28,4c.23,5.36,4.65,9.91,9.75,11.59s10.71.93,15.85-.65a6.78,6.78,0,0,1,6.91.56,47.89,47.89,0,0,0,44.83-1.35,8.64,8.64,0,0,1,3.44-1.43,9.79,9.79,0,0,1,4.13,1,20.41,20.41,0,0,0,20.42-4.1,9.8,9.8,0,0,1,3.4-2.52c.84-.27,1.76-.26,2.61-.54,2.15-.72,3.19-3.13,3.82-5.31,4.36-14.9,1.84-30.86-1.08-46.11C261.64,159,260.21,152,258.78,145c-1.23-6-2.91-12.74-8.15-16-1.8-1.11-3.92-1.72-5.45-3.17-1.26-1.18-2-2.81-3.06-4.17-2.92-3.73-7.91-5.07-12.58-5.82-11-1.78-22.18-1.58-33.31-1.38a60.59,60.59,0,0,0-19.14,3.07C170.42,119.75,163.73,120.13,157.79,124.41Z" transform="translate(-11.78 -2.48)" fill="#f95e5e" style="isolation:isolate"/><path d="M172.66,123.64a4.4,4.4,0,0,0-1.65,1.64c-.81,1.71.65,3.63,2.18,4.75a17.46,17.46,0,0,0,10.07,3.36c-2.21,1.9-5.48,1.71-8.36,1.25s-6-1.06-8.56.29a10,10,0,0,0-4.07,4.89c-3.08,6.73-2.85,14.61-5.93,21.33a73.48,73.48,0,0,1,.19-13.35,24.59,24.59,0,0,1,4.88-12.27,42,42,0,0,1,3.67-3.76,2,2,0,0,0,.64-.88c.26-1-1-1.7-2.08-1.75-3.33-.16-6.42,2.05-8.24,4.84s-2.62,6.11-3.39,9.36l-3.78,16c.17-7-1.13-15,1.36-21.62,1.34-3.56,2.33-6.22,4.69-9.2,5.13-6.45,18.14-10.34,26.35-10.28C178.88,121,175.25,121.9,172.66,123.64Z" transform="translate(-11.78 -2.48)" fill="url(#linear-gradient-2)"/><circle cx="166.16" cy="101.78" r="16.49" fill="#f95e5e"/><circle cx="166.16" cy="101.78" r="16.49" fill="url(#linear-gradient-3)"/><path d="M246.78,62.72a89.43,89.43,0,0,1,49.45-11.84c-.06,1.73-2.06,2.78-3.79,2.74s-3.37-.77-5.09-.93c-2.89-.25-5.64,1.14-8.21,2.49-4.26,2.25-8.53,4.5-12.59,7.1a84.71,84.71,0,0,0-29.14,31.81C234,100.56,231,108,224.55,111.36a6.42,6.42,0,0,1-3.65.9c-4.36-.52-9.92-8.21-9.17-12.41.82-4.64,6.32-10.66,9.14-14.33A89.36,89.36,0,0,1,246.78,62.72Z" transform="translate(-11.78 -2.48)" fill="#f95e5e" style="isolation:isolate"/><path d="M246.78,62.72a89.43,89.43,0,0,1,49.45-11.84c-.06,1.73-2.06,2.78-3.79,2.74s-3.37-.77-5.09-.93c-2.89-.25-5.64,1.14-8.21,2.49-4.26,2.25-8.53,4.5-12.59,7.1a84.71,84.71,0,0,0-29.14,31.81C234,100.56,231,108,224.55,111.36a6.42,6.42,0,0,1-3.65.9c-4.36-.52-9.92-8.21-9.17-12.41.82-4.64,6.32-10.66,9.14-14.33A89.36,89.36,0,0,1,246.78,62.72Z" transform="translate(-11.78 -2.48)" fill="url(#linear-gradient-4)"/><path d="M185.49,142.74a10.84,10.84,0,0,1,.86-4.08c1.2-2.41,4-3.68,6.63-4s5.37.1,8.06.13a27.27,27.27,0,0,0,12.63-3c-.81,2.18-3.06,3.45-5.21,4.34a38.31,38.31,0,0,1-10.13,2.64c-1.94.23-4,.34-5.6,1.46-2.34,1.64-2.9,4.81-3.26,7.64q-1.6,12.44-3.2,24.88C185.39,163,184.77,152.54,185.49,142.74Z" transform="translate(-11.78 -2.48)" fill="url(#linear-gradient-5)"/><path d="M217.37,118.17c3.61,1.14,8.41-.55,10.76,2.42,1.9,2.39.37,6.12-2.09,7.93s-5.58,2.44-8.32,3.78c4.19,2.4,9.84,1.48,13.68,4.4,2.7,2.05,3.84,5.51,4.73,8.78A145,145,0,0,1,240,165q-.84-12.63-2.7-25.17c-.37-2.5-.94-5.27-3-6.7,5.22.85,10.89-1.82,15.24,1.19a12.45,12.45,0,0,1,3.8,5.11c5.1,10.54,7,22.36,7.65,34.05a99.54,99.54,0,0,0-7.87-38.62c-1-2.47-2.29-5-4.51-6.51-3.63-2.46-8.58-1.35-12.75-2.72,1.45-2.68-.1-6.21-2.63-7.91s-5.72-2-8.76-2.18a108.37,108.37,0,0,0-19.56.85C208.49,117,213.9,117.08,217.37,118.17Z" transform="translate(-11.78 -2.48)" fill="url(#linear-gradient-6)"/><path d="M189.55,172.7q-1.29,27.59-.38,55.22a3,3,0,0,0,.41,1.74,2.8,2.8,0,0,0,1.37.85,11.87,11.87,0,0,0,6,.63c-2-3.39-4.06-5.23-4.57-9.19-.71-5.46-.4-11.23-.64-16.73C191.3,194.61,189.05,183.25,189.55,172.7Z" transform="translate(-11.78 -2.48)" fill="url(#linear-gradient-7)"/><path d="M152.18,203.31c-.17,2.72-.37,5.58-1.8,7.91s-4.51,3.89-7,2.7a298,298,0,0,1,.77-34.07c1-12.65,3-25.81,10.49-36.08,2.06,9.11,0,17.81-.53,27Q153.17,187,152.18,203.31Z" transform="translate(-11.78 -2.48)" fill="url(#linear-gradient-8)"/><path d="M178.69,182.24c.08-10,.16-20.12-1.21-30.07-4.41,9.44-4.49,20.24-4.76,30.65s-1,21.32-6.4,30.22a3.9,3.9,0,0,1-2.11,2,3.8,3.8,0,0,1-2.45-.43A27.34,27.34,0,0,1,151.67,207c-.86,3.88-1.16,8.12.65,11.66,2.18,4.25,7.05,6.58,11.81,7,2.84.25,11.7.36,13.78-1.85,1.78-1.9.53-10.3.55-13.09Z" transform="translate(-11.78 -2.48)" fill="url(#linear-gradient-9)"/><path d="M220.28,209.86c.11,6.59-.71,14.6-6.67,17.41a26.76,26.76,0,0,0,12.86-4.12,15.83,15.83,0,0,0,20.68-.1c-1.72-.16-3-1.6-4-3-12-16.72-8.88-38.79-11.85-58.05-.65-4.2-4.49-26.33-11.81-24.15-5.91,1.76-1.49,23.42-1.21,27.18Q219.92,187.41,220.28,209.86Z" transform="translate(-11.78 -2.48)" fill="url(#linear-gradient-10)"/><path d="M247.21,160.88a398.71,398.71,0,0,0,7.93,51.21c.41,1.84,1.16,4,3,4.42,2.1.45,3.75-1.79,4.57-3.77A34,34,0,0,0,265.3,199c-.22-11.18-5.89-21.5-7.91-32.5-1.25-6.86-1.09-14-3.31-20.63-.94-2.8-11-17.06-12.31-10.1-.5,2.66,3.08,8.33,3.7,11.17A113.93,113.93,0,0,1,247.21,160.88Z" transform="translate(-11.78 -2.48)" fill="url(#linear-gradient-11)"/><path d="M183.06,106.41c-.05-.21-.18-.51-.49-1.29-1-2.61-2.64-4.67-.59-7.52,1.83-2.55,5.15-3.43,7.78-5.14s4.61-5.59,2.43-7.84a21.08,21.08,0,0,0,5.35,5.43,71.35,71.35,0,0,0-.6-11.22c3.08,5.64,9.07,8.91,14.29,12.66a28.33,28.33,0,0,1,7.61,7.59c1.77,2.83,1.73,5.86,3,8.78,2.65,6.18,12.27,7.88,8,16.37-1.56,3.12-4.61,5.26-7.85,6.54-6.16,2.43-13,2.14-19.62,1.7a127.08,127.08,0,0,1-18-2.14c-3.41-.73-6.93-1.8-9.36-4.3s-3.3-6.81-1.05-9.46c1.69-2,4.5-2.51,6.94-3.48a3.23,3.23,0,0,0,1.36-.86c.84-1,.58-2.81.62-4S183.12,106.73,183.06,106.41Z" transform="translate(-11.78 -2.48)" fill="#fff"/><path d="M211.88,101.91c2.23,2.21,4.67,4.47,5.5,7.5a37.44,37.44,0,0,0-1.38-6.88l2.45,6,1.67-3.53a9.93,9.93,0,0,0,2.58,6.59c1.51,1.65,3.61,2.82,4.68,4.79,1.6,2.93.29,6.77-2.14,9.07s-5.7,3.44-8.86,4.5a18.85,18.85,0,0,0,5.49-3,7.61,7.61,0,0,0,2.84-5.42c.09-3.71-3.23-6.5-6.23-8.69a11,11,0,0,1-2,2.48c-.73-1.24-1.61-2.59-3-2.91a6.13,6.13,0,0,0-1.91,0,36.73,36.73,0,0,1-26.31-7.12,74.68,74.68,0,0,0,25.93,5c.53,0,1.16-.05,1.42-.51s-.07-1.08-.41-1.52a18.11,18.11,0,0,0-3.72-3.54c0,.3.52.27.58,0s-.17-.55-.38-.76L194.22,90.06a64.76,64.76,0,0,1,18.09,15.27c-2.76-4.24-7.05-7.21-10.45-11s-6-9.05-4.22-13.8c1.3,4.33,2.29,7.39,5.07,11A102.31,102.31,0,0,0,211.88,101.91Z" transform="translate(-11.78 -2.48)" fill="url(#linear-gradient-12)"/><path d="M192.19,118.7c5.83,2.14,12,3.84,18.18,3.47-4.39-.37-8.8-.12-13.21-.2a37.13,37.13,0,0,1-13-2.11,51.36,51.36,0,0,1-5.37-2.64,3.94,3.94,0,0,0-1.81-.61,4.05,4.05,0,0,0-1.68.51c-.93.44-2,1-2.16,2a2.82,2.82,0,0,0,.19,1.46,8.81,8.81,0,0,0,2,3.23,14.73,14.73,0,0,0,3.71,2.52,47.93,47.93,0,0,0,12.06,4.35l-10.1-2.84c-2.46-.69-5.1-1.51-6.59-3.59-1.28-1.77-1.43-4.1-1.53-6.29a2.53,2.53,0,0,1,.38-1.82,2.6,2.6,0,0,1,1.82-.62l3-.2a2.17,2.17,0,0,0,.95-.22c.5-.31.65-1,1.06-1.37s1.33-.57,1.88-1a3.21,3.21,0,0,0,.75-2.47l.11-5.17a41.83,41.83,0,0,0,7.6,6.19,30.45,30.45,0,0,0-4.59-2c-.46-.16-1-.27-1.38.08a1.25,1.25,0,0,0-.18,1.12c.19,1.09.86,2,1.11,3s-.1,1.33.8,2.13A18.21,18.21,0,0,0,192.19,118.7Z" transform="translate(-11.78 -2.48)" fill="url(#linear-gradient-13)"/><path d="M160.1,74.69c-4.47-4.1-10.46-6.79-16.51-6.37-1.44.1-3.26.87-3.08,2.3.12.91,1.05,1.48,1.92,1.78a4,4,0,0,0,3,.07,1.93,1.93,0,0,0,1-2.55A33.37,33.37,0,0,1,167,91.56c.15.49,2.22-.38,2.43-.62.74-.85.46-.7.34-1.67-.22-1.64-1.76-3.83-2.56-5.28A36,36,0,0,0,160.1,74.69Z" transform="translate(-11.78 -2.48)" fill="url(#linear-gradient-14)"/></svg>